<?xml version="1.0" encoding="utf-8"?>
<!-- Generator: Adobe Illustrator 14.0.0, SVG Export Plug-In . SVG Version: 6.00 Build 43363)  -->
<!DOCTYPE svg PUBLIC "-//W3C//DTD SVG 1.1//EN" "http://www.w3.org/Graphics/SVG/1.1/DTD/svg11.dtd">
<svg version="1.1"
	 id="svg2" sodipodi:version="0.32" inkscape:version="0.45" sodipodi:modified="true" xmlns:dc="http://purl.org/dc/elements/1.1/" xmlns:cc="http://web.resource.org/cc/" xmlns:rdf="http://www.w3.org/1999/02/22-rdf-syntax-ns#" xmlns:svg="http://www.w3.org/2000/svg" xmlns:sodipodi="http://sodipodi.sourceforge.net/DTD/sodipodi-0.dtd" xmlns:inkscape="http://www.inkscape.org/namespaces/inkscape"
	 xmlns="http://www.w3.org/2000/svg" xmlns:xlink="http://www.w3.org/1999/xlink" x="0px" y="0px" width="744.094px"
	 height="1052.363px" viewBox="0 0 744.094 1052.363" enable-background="new 0 0 744.094 1052.363" xml:space="preserve">
<sodipodi:namedview  id="base" inkscape:window-height="696" inkscape:window-x="0" inkscape:window-width="1016" inkscape:window-y="0" inkscape:pageshadow="2" inkscape:document-units="px" inkscape:current-layer="layer1" inkscape:pageopacity="0.0" objecttolerance="10" guidetolerance="10" gridtolerance="10000" borderopacity="1.0" inkscape:cy="838.10311" bordercolor="#666666" inkscape:cx="-136.51488" pagecolor="#ffffff" inkscape:zoom="0.25">
	</sodipodi:namedview>
<g id="layer1" inkscape:groupmode="layer" inkscape:label="Layer 1">
	<path id="path2558" fill="none" stroke="#000000" stroke-width="14" d="M302.075,1018.988
		c-15.819-5.189-28.347-16.865-31.926-29.752c-1.426-5.135-2.105-110.18-2.113-326.658l-0.011-319.09h-8.015h-8.015v120.45
		c0,118.08-0.082,120.593-4.143,127.736c-5.261,9.252-11.168,13.586-22.731,16.68c-17.094,4.57-35.788-4.158-42.501-19.848
		c-4.319-10.096-4.038-279.339,0.31-296.03c9.799-37.621,41.533-68.443,78.543-76.286c19.496-4.131,199.75-4.182,219.19-0.062
		c19.799,4.197,36.807,13.69,51.854,28.946c15.479,15.692,22.705,28.421,28.094,49.493c3.756,14.688,3.963,22.554,3.963,150.491
		c0,116.951-0.412,135.98-3.082,142.371c-4.15,9.936-8.424,14.404-17.957,18.783c-15.82,7.264-35.926,2.59-45.281-10.525
		l-4.811-6.746l-0.547-122.727l-0.545-122.727h-7.971h-7.969v320.657c0,351.5,0.795,328.162-11.629,341.25
		c-9.813,10.34-19.818,14.252-36.461,14.252c-16.641,0-26.648-3.912-36.461-14.252c-12.182-12.834-11.627-2.887-11.627-209.006
		V607.976h-8.016h-8.015v188.412c0,153.545-0.5,189.607-2.702,194.861c-4.037,9.633-12.818,19.131-22.037,23.834
		C330.579,1019.615,310.408,1021.722,302.075,1018.988z M347.145,193.727c-24.223-8.651-39.193-21.987-49.79-44.352
		c-5.865-12.378-6.288-14.756-6.288-35.354c0-20.842,0.364-22.823,6.479-35.244c30.544-62.043,118.724-62.195,149.216-0.257
		c6.313,12.824,6.605,14.441,6.605,36.503c0,21.218-0.453,24.007-5.602,34.49c-8.646,17.61-21.42,30.451-38.867,39.074
		c-13.546,6.694-16.985,7.528-33.404,8.095C361.716,197.158,354.706,196.427,347.145,193.727z"/>
</g>
</svg>
